<svg xmlns="http://www.w3.org/2000/svg" width="342.824" height="358.871" viewBox="0 0 342.824 358.871"><g transform="translate(0 0.039)"><path d="M198.75,225.32l-1.14-1c-.16.33-.5.69-.46,1,.18,1.29-1.1,1.05-1.57,1.29a33.179,33.179,0,0,1-5.66,2.2c-2.36.7-4.78,1.22-7.18,1.8-1,.25-2.12.36-3.13.68a11,11,0,0,0-1.7,1c-.34.2-.77.52-1.09.45-1.49-.34-2.55.55-3.63,1.24a24,24,0,0,0-3.36,2.58,4.94,4.94,0,0,1-4.29,1.39c-1-.12-2.19.74-3.09,1.43a2.73,2.73,0,0,1-3.23.16,5,5,0,0,0-3.8-.39,2.71,2.71,0,0,1-3.32-1.33c-.18-.26-.85-.54-1-.42-1.65,1.15-3,.34-4.41-.58l-1.27.42c-1.05-1.54-2.87-1.51-4.4-2.08a11.26,11.26,0,0,1-2.12-.83c-.62-.4-1.08-.94-2-.72-.24.06-.64-.43-.93-.69-.87-.79-1.75-1.57-2.57-2.41a37.923,37.923,0,0,1-2.59-2.93,20.151,20.151,0,0,1-1.88-2.89q-1.15-2.21-2.08-4.52a20.222,20.222,0,0,1-.6-2.47c-.21-.85-.55-1.68-.69-2.54a14,14,0,0,0-1.73-4.26,5.73,5.73,0,0,1-.43-1.91c-.1-.82,0-1.65-1-2.11a.75.75,0,0,1-.15-.7c1.34-1.37.26-2.79,0-4.11a23.63,23.63,0,0,0-1.5-3.82c-.74-1.9-1.51-3.79-2.18-5.71-1.13-3.25-3-6.25-3.18-9.84,0-1.3-.59-2.59-.57-3.87a10.71,10.71,0,0,1,.78-3.89c.53-1.22,0-2.22-.24-3.24-.64-2.64-1.49-5.23-2.21-7.85a7.77,7.77,0,0,1-.14-1.46l.3-.08,1.79,4c1.45-1.24.36-2.68.43-4,0-.1-.53-.25-.83-.33-.8-.25-1.21-.41-.87-1.56a10.11,10.11,0,0,0-.13-3.82c-.21-1.72-.54-3.42-.8-5.13q-.51-3.27-1-6.56c-.16-1.26-.21-2.54-.37-3.81-.18-1.45-.43-2.9-.66-4.42l.68.09a19.58,19.58,0,0,0,.37-2.32,9.42,9.42,0,0,0-.19-2.11c-.19-1-.48-2.07-.66-3.11-.32-1.81-.5-3.65-.89-5.44-.56-2.52-1.24-5-1.9-7.5-.18-.7-.52-1.35-.71-2-.69-2.63-1.37-5.25-2-7.89a3.76,3.76,0,0,1,.17-1.68c.81-1.85.15-3.69,0-5.37l3-3.65,2,1.26a7.479,7.479,0,0,1-1.45,2.63c-.77.63-.55,1.16-.7,1.71-.31,1.14-.3,2.38-.68,3.48-.5,1.47-.49,2.71.72,3.82a1.12,1.12,0,0,1,.07,1.64c-.93,1.4-.86,1.89.67,2.55,1.21.52,2.52,1.06,3.89.18a1.31,1.31,0,0,0,.44-2c-.42-.68-1.12-1.17-1.58-1.83-.35-.48-.86-1-.17-1.72a16.4,16.4,0,0,0,1.34-2.36,2,2,0,0,0,0-2.13,18.889,18.889,0,0,1-.51-2c-.26-.81.34-1.77-.49-2.51-.15-.13,0-.9.2-1.07,1.06-.77,1.09-1.87,1.22-3,.28-2.53.62-5,1-7.57a2.66,2.66,0,0,1,.45-1.42c1.21-1.16,1-2.62,1-4a3.06,3.06,0,0,1,1.54-2.92c1.6-.87,1.7-2.45,2.39-3.78,1.13-2.2.82-4.63,1.16-6.94.13-.86-.62-1.84-.87-2.78a13.75,13.75,0,0,1-.58-3c-.07-1.72.11-3.45,0-5.17a8.74,8.74,0,0,0-.75-2.21c1.86.07,2.86-1,4-2a8.7,8.7,0,0,1,3.28-2.29c1.28-.39,1.29-1.72,1.64-2.66,1.08-2.9,1.87-5.9,2.94-8.81a16,16,0,0,0,.51-4.28,17.693,17.693,0,0,0,0-1.92,10,10,0,0,1-2.8-1.72,7.68,7.68,0,0,1-1-2.93c-.26-1,.19-1.58,1.83-2.19.82-.31,1.68-.49,2.5-.81a5.28,5.28,0,0,0,1.31-.78c1-.78,1.93-1.61,3.15-2.64-1.14-1-2.38-2.31-3.78-3.39a32.489,32.489,0,0,0-3.66-2.15c-.1-.06-.28,0-.33-.11-.26-.38-.49-.79-.74-1.19.48-.09,1-.37,1.42-.21,1.43.58,2.8,1.34,4.2,2,1,.48,2.11.88,3.16,1.32s2.32.89,3.43,1.45c1.6.81.83,2.27.9,3.57a2.21,2.21,0,0,0,2.46.13c2.1-.81,4.21-1.6,6.33-2.33a3.82,3.82,0,0,1,1.65-.1,25.94,25.94,0,0,1,6.9,2.3,9,9,0,0,0,3,.59c-2.07-1.1-3.57-3.08-6.07-3.39-.9-.11-1.68-1-2.59-1.27-.43-.14-1,.24-1.55.37a1.58,1.58,0,0,1-.7.11c-.86-.17-1.72-.37-2.57-.59a4,4,0,0,1-1.52-.52c-1.83-1.45-3.53-3.08-5.44-4.43a17.35,17.35,0,0,0-3.41-1.31c-.75-.31-1.45-.74-2.31-1.19-.21,1.34.06,2.07,1.05,2.57.21.11.1.84.14,1.28a2.67,2.67,0,0,1-1.07-.06c-.7-.37-1.33-.87-2-1.29a.56.56,0,0,0-.45,0c-1.23.8-2.23,0-3.22-.51a16,16,0,0,1-3.86-2.21,9.33,9.33,0,0,0-3.27-1.87c-.32-.12-.53-.56-.83,0a12.271,12.271,0,0,1-1-1.31c-.6-1.07-1.14-2.17-1.7-3.26l-.19-.37a18,18,0,0,0,2.57-2C122.69.52,124.14.45,125.8.56c2.07.13,4.16,0,6.31,0a15.432,15.432,0,0,0,.24,2.2c.06.25.53.45.85.58.74.32,1.5.59,2.25.87.2.08.44.29.59.23,1.51-.57,2.31.43,3.17,1.37,1.88,2.06,3.66,4.22,5.7,6.1a20.23,20.23,0,0,0,4.14,2.44,6.65,6.65,0,0,0,1.82.63c-2.07-1.57-4.16-3.1-6.18-4.73a19.431,19.431,0,0,1-2.23-2.38c-1-1.09-1.74-2.46-2.91-3.25A12.1,12.1,0,0,0,135.2,3a3.49,3.49,0,0,1-2.08-1.05c-.4-.44-.6-.88.22-1.23A10.74,10.74,0,0,1,138.22,0c1.94.1,2,.44,2.76,2.33a12.29,12.29,0,0,0,2.25,3.18c1.73,2,3.68,3.91,5.23,6.08,1.06,1.47,2.53,2.15,3.9,3.12,2.38,1.69,4.62,3.58,6.9,5.42,2,1.59,3.92,3.26,5.92,4.83,1.51,1.18,3.11,2.23,4.63,3.4.37.29.53.85.86,1.23.8.92,1.65,1.8,2.44,2.72.15.18.14.5.21.76-.32,0-.72.14-.94,0a21.462,21.462,0,0,1-2-1.52l-.4.2c.14.39.16.87.42,1.13,1,1,2.08,1.93,3.37,3.11l-.14-1.84c1.38-.38,1.5.58,1.91,1.52.79,1.79,1.83,3.47,2.74,5.21a5.57,5.57,0,0,1,.31,1.22l-2.39-.74-.31.33c.21.3.39.83.62.86,1.24.13,2,.61,1.58,2.21l1.26-.91c.69,1.39,1.32,2.8,2.07,4.13a7.57,7.57,0,0,0,1.34,1.44c.4.39,1.08.63.24,1.34-.5.42-.68.43-.9-.13-.63-1.56-2.06-1.43-3.32-1.73l3.14,4.1a7.46,7.46,0,0,0-1,1.45,1.508,1.508,0,0,0,.77.68,1.29,1.29,0,0,0,1.55-.77,16.623,16.623,0,0,1,1.52-2.19c1.41,2.11,2.81,4.22,4.24,6.31a1.58,1.58,0,0,0,.95.68,2.48,2.48,0,0,1,2,1.59c.38.71.62,1.51,1,2.21.27.48.67,1.1,1.12,1.21,1.1.26,1.35,1.06,1.61,1.93s.47,1.6.75,2.39c0,.1.33.09.49.16a2.139,2.139,0,0,1,.78.42c.82,1.09,1.6,2.2,2.37,3.32s-.43,1.29-.79,1.87a2.818,2.818,0,0,0-.19.51c1.44-.11,1.09,1.32,1.66,2,.11.13.1.37.17.55.61,1.71.53,1.82-1.45,1.81.65-.63.44-1.23-.05-1.85-.89.58-1.4,1.22-.51,2.28a1.67,1.67,0,0,1,.24,1,.74.74,0,0,1-.3.57c-.14.06-.41-.09-.6-.2a18.733,18.733,0,0,0-2.14-1.19c-.82-.32-1.72.4-2.12,1.55,1.1.77,1.52-.33,2.35-.93,1.76,3,4.14,4.48,7.69,2.85-.12-.31-.2-.52-.29-.73s-.16-.43-.29-.74c1-.24,1.71-1.16,3-.77,1.69.52,1.79,1.86,2.13,3.16.38,1.45.82,2.9,1.15,4.36a3,3,0,0,1-.22,1.75c-.39-.62-.75-1.26-1.19-1.85-.14-.2-.46-.27-.7-.4a5.3,5.3,0,0,0,0,.69,8.71,8.71,0,0,0,.17.86c.09,1.22.77,1.73,2,1.86a1.63,1.63,0,0,1,1,1c.75,2.8,1.44,5.62,2.11,8.45.25,1,.37,2.12.57,3.18a1.62,1.62,0,0,1-1.09,1.93c-.51-1.73-1-3.43-1.55-5.24a3,3,0,0,0,.09,3.68c.3.24.38.73.64,1a4.54,4.54,0,0,0,1.33,1.26.64.64,0,0,0,.94-.71c0-.17.36-.38.56-.57.15.18.37.34.44.54.21.65.3,1.35.56,2a18.838,18.838,0,0,0,1.09,1.89c.5.84,1,1.69,1.51,2.56l.72-.8c.37.67.22,2.37,1.94.6a5.79,5.79,0,0,1,0,1.77c-.45,1.12.06,1.77.89,2.37a10.413,10.413,0,0,1,1.2,1c-1.16.81-1.52,1.78-1.06,2.73a14.57,14.57,0,0,0,1.21,2c.4.6.89,1,1.66.48.1-.07.61.22.67.41.54,1.94,2.21,3,3.36,4.47a9,9,0,0,1,1.18,1.78,1.12,1.12,0,0,1-.31,1,1.452,1.452,0,0,1-1.27.18,15.05,15.05,0,0,1-1.89-2.09,2.163,2.163,0,0,0-3-.63,4.43,4.43,0,0,0-.69,1.45c1.36.8,1.68.76,2.36-.4.62.54,1.76.31,1.77,1.68,0,.34.75.63,1.08,1a9.11,9.11,0,0,1,1.42,1.94c.3.65.29,1.43.61,2.17v-1.13c2.37.66,2.86,2.74,3.65,4.58-.89,1.08.58,2.65-.75,3.69-.11.08.24.8.43,1.21.26.58,1.08,1.08,0,1.82.31.08.48.18.58.14,1-.43,1-.44,1.22.66.14.71.2,1.44.34,2.47l1.15-4.1c1,.46,1,.46,1,1.68a1.5,1.5,0,0,0,.22.77,17.434,17.434,0,0,1,2.4,10.3c-.09,2.54.26,5.14-.12,7.62s.57,4.95.61,7.42a16.89,16.89,0,0,1-.68,4.19c-.61,2.48-1.24,5-2,7.38a8.61,8.61,0,0,0-.48,3.55c0,.46-.5.95-.73,1.44-.78,1.61-1.5,3.26-2.33,4.84-.27.51,0,.93-.07,1.34a10.61,10.61,0,0,1-.94,3.28,65.535,65.535,0,0,1-4.07,6.46,18.76,18.76,0,0,1-5.68,5.47c-1.09.63-2.28,1.09-3.33,1.78-1.39.92-2.69,2-4,3-2.09,1.57-4.2,3.13-6.28,4.72a13,13,0,0,1-2.09,1.74c-2.18,1-4.43,1.82-6.66,2.69C200.24,224.82,199.39,225.1,198.75,225.32Z" fill="#fff"/><path d="M319,198c.28-3.1.55-6.1.84-9.09.18-1.9.43-3.79.6-5.69.29-3.26.6-6.52.81-9.79.17-2.54.09-5.11.32-7.64.27-2.94.71-5.87,1.15-8.79.33-2.1.72-4.2,1.21-6.26.43-1.83.85-3.65,2.35-5.07,1.26-1.21,2-3.07,3.36-4s3-2,4.91-1.49a3,3,0,0,1,1.19.81,33.126,33.126,0,0,0,2.38,2.5c1,.77.95,1.85,1.13,2.84.34,1.88.59,3.77.78,5.67s.31,4,.38,6,0,3.76.07,5.64c0,1.64.09,3.29.25,4.92.28,2.71.71,5.4,1,8.12.2,2.1.22,4.22.34,6.33.24,4,.55,8.06.73,12.1.08,1.65-.06,3.31-.13,5a41.465,41.465,0,0,1-.29,5.36c-.48,2.75-1.14,5.48-1.87,8.18-.61,2.29-1.4,4.55-2.18,6.8-.56,1.62-1.28,3.2-1.87,4.81-.41,1.1-.7,2.22-1.08,3.32-.44,1.28-.86,2.57-1.38,3.81-.4,1-1,1.83-1.41,2.77-.67,1.46-1.29,2.94-1.92,4.42-.81,1.9-1.59,3.81-2.43,5.7-.74,1.63-1.55,3.22-2.32,4.84q-1.5,3.15-3,6.31c-1.06,2.26-2,4.58-3.19,6.79-1.76,3.31-3.65,6.55-5.52,9.8-1.7,3-4.47,4.79-7.13,6.72-2,1.48-4.05,2.95-6.12,4.36s-3.9,2.51-5.84,3.78c-3.39,2.24-6.76,4.51-10.17,6.72-2.19,1.42-4.47,2.7-6.67,4.12-1.89,1.22-3.7,2.59-5.59,3.82-1.43.94-2.94,1.74-4.37,2.65-1,.63-2,1.32-2.9,2-1.72,1.29-3.38,2.66-5.15,3.89-1.16.81-2.48,1.39-3.68,2.15-1,.64-2,1.37-3,2.09-2.67,2-5.46,3.79-8,6a35.776,35.776,0,0,0-5.6,6.13,9.25,9.25,0,0,0-1.61,4.93c-.11,2.14-.7,4.25-.92,6.38-.14,1.39,0,2.8,0,4.2,0,.52-.08,1-.09,1.56,0,1.55,0,3.09-.07,4.64,0,.92-.13,1.84-.1,2.76,0,1.44.19,2.88.26,4.32v2.48H223.5c-2.09,0-4.18.07-6.25-.1-1.17-.1-2.38.63-3.51-.18-2,.76-4.06.15-6.09.19-2.77.06-5.55-.09-8.32-.09-2.5,0-5,.07-7.49.12l-8.33.13h-3.74c-.06-.62-.14-1.33-.18-2-.08-1.54-.15-3.09-.22-4.64-.14-3.4-.25-6.8-.44-10.2-.12-2.19-.41-4.36-.53-6.54s-.11-4.41-.18-6.62c0-1.18-.17-2.36-.18-3.54,0-1.41.07-2.82.1-4.23,0-.8-.06-1.6,0-2.39.31-3.07.57-6.15,1-9.21a53.437,53.437,0,0,1,1.52-7c.54-1.85,1.42-3.59,2.11-5.4.51-1.35.93-2.74,1.48-4.08a21.44,21.44,0,0,1,1.32-2.45c1.56-2.75,2.85-5.65,4.93-8.09,1.06-1.25,1.79-2.78,2.84-4,1.77-2.13,3.65-4.15,5.52-6.19a56.212,56.212,0,0,1,4.36-4.5c2.68-2.32,5.43-4.58,8.29-6.68a66.19,66.19,0,0,1,7.17-4.55,36.492,36.492,0,0,1,6-2.63,55.478,55.478,0,0,1,7.38-2c3.43-.66,6.91-1.05,10.36-1.58,1.36-.21,2.71-.53,4.07-.76,1.52-.25,3.06-.38,4.55-.69,2.71-.57,5.43-1.13,8.09-1.89a47.569,47.569,0,0,0,6.09-2.3,13,13,0,0,0,2.87-1.93c3.08-2.53,5.35-5.78,7.71-8.92s4.74-6.68,7.18-10a45.737,45.737,0,0,1,3.94-4.62,79.5,79.5,0,0,1,6.47-6.12,85.451,85.451,0,0,1,7.27-5,52.086,52.086,0,0,1,6.14-3.63,14.62,14.62,0,0,1,4.26-.89,35.191,35.191,0,0,1,4.91-.39,38.092,38.092,0,0,1,4.88.41c1,.13,1.12.93,1.31,1.82a10.76,10.76,0,0,1-.86,6.58,25.861,25.861,0,0,1-3.2,4.82c-.9,1.26-1.9,2.46-2.87,3.67q-2.43,3.08-4.89,6.13c-2.15,2.66-4.32,5.31-6.46,8-1,1.28-2.06,2.58-3,3.95a34.348,34.348,0,0,0-3,5.11c-.41.92-.14,2.15-.09,3.24a1.29,1.29,0,0,0,1,.2,15.761,15.761,0,0,0,3.74-2.56c2.6-3,5-6.15,7.42-9.27,1.45-1.86,2.9-3.73,4.24-5.68,1.59-2.29,3.05-4.66,4.59-7,.95-1.44,2-2.84,2.9-4.3,1.68-2.68,3.41-5.34,4.92-8.11a8,8,0,0,0,.47-6.78,7.44,7.44,0,0,0-6-4.64A19.872,19.872,0,0,0,319,198Z" fill="#fff"/><path d="M163.23,358.68H152.1l-10.63.05-9.62.08c-2.36,0-4.73.05-7.09,0-3.27,0-6.53-.18-9.8-.22-2.67,0-5.34.05-8,.07a5.369,5.369,0,0,1-1.45-.12.81.81,0,0,1-.49-.65c.13-2.54.39-5.07.46-7.61.06-1.94-.09-3.89-.14-5.83,0-1.39,0-2.79-.1-4.18s-.25-2.87-.41-4.3-.29-3-.55-4.46a12.9,12.9,0,0,0-3.69-6.92,29.753,29.753,0,0,0-4.75-4.28c-3.42-2.29-6.71-4.77-10-7.19-3-2.14-5.87-4.37-8.89-6.43-2.08-1.42-4.34-2.57-6.47-3.92-1.26-.81-2.41-1.8-3.65-2.64-1.63-1.09-3.32-2.11-5-3.17-2.43-1.58-4.84-3.19-7.28-4.76-1.5-1-3.06-1.82-4.55-2.78-1.07-.69-2-1.51-3.1-2.2-1.3-.83-2.69-1.52-4-2.37-1.89-1.28-3.73-2.63-5.58-4-2-1.5-4.12-2.95-6.08-4.56a15.67,15.67,0,0,1-3.73-5q-2.13-4.08-4.21-8.19-2.85-5.68-5.64-11.4c-1.41-2.9-2.81-5.81-4.15-8.74-.72-1.57-1.3-3.22-2-4.82-.58-1.39-1.23-2.75-1.8-4.14-.74-1.79-1.43-3.59-2.15-5.39S6,224.92,5.33,223s-1.42-3.93-2.07-5.91c-.51-1.53-.94-3.08-1.36-4.63s-.73-2.86-1-4.29a37.8,37.8,0,0,1-.72-3.91A28.292,28.292,0,0,1,0,200.33c0-1.32,0-2.71.07-4.06.13-3.45.26-6.9.43-10.35.12-2.59.25-5.18.45-7.76.18-2.14.5-4.27.7-6.41.24-2.44.46-4.89.62-7.34.09-1.33,0-2.66,0-4,.08-2.36.12-4.73.33-7.08a72.561,72.561,0,0,1,1-7.8,7,7,0,0,1,2.55-3.92c.15-.12.34-.18.51-.29.72-.46,1.5-1.38,2.15-1.3a9.58,9.58,0,0,1,3.77,1.4,15.09,15.09,0,0,1,4.58,5.22c1.61,2.63,2.05,5.51,2.49,8.44.37,2.52.9,5,1.18,7.53.32,2.82.44,5.67.62,8.51.19,3,.31,6,.52,9,.2,2.76.47,5.52.76,8.29.19,1.9.49,3.8.69,5.71.13,1.31.16,2.62.24,3.82a27.078,27.078,0,0,0-5.09,1.94,7.34,7.34,0,0,0-3.35,6.75c.21,3.43,2.22,5.85,3.69,8.57a80.55,80.55,0,0,0,4.78,7.27c1.55,2.27,3.13,4.52,4.76,6.73,2.12,2.9,4.3,5.76,6.45,8.63,1.29,1.73,2.49,3.53,3.88,5.17a28,28,0,0,0,3.77,3.61c1.32,1,2.27.47,2.44-1.22a5.53,5.53,0,0,0-1-3.17,55.43,55.43,0,0,0-6.51-9.66c-2.46-3-5.08-5.93-7.51-9-2.58-3.24-5.1-6.54-7.49-9.92a10.22,10.22,0,0,1-2.24-6,14.42,14.42,0,0,1,.27-2.79A2.37,2.37,0,0,1,22.84,203a20.57,20.57,0,0,1,7,.35,24,24,0,0,0,2.7.18c1.58.28,3.19.39,4.6,1.42s3.19,1.91,4.75,2.92,3.38,2.28,5,3.46a48.945,48.945,0,0,1,4.3,3.16,37.831,37.831,0,0,1,2.85,3c1.19,1.25,2.44,2.44,3.58,3.73.81.9,1.48,1.93,2.21,2.91,1.1,1.45,2.23,2.89,3.31,4.36,1.78,2.42,3.57,4.83,5.3,7.29A32.52,32.52,0,0,0,75,242.89a25.31,25.31,0,0,0,7.7,4,66.79,66.79,0,0,0,8,1.79c1,.21,2.16.18,3.23.32.84.12,1.67.36,2.5.5,3.55.63,7.1,1.23,10.65,1.86,2.19.39,4.4.74,6.57,1.25,1.68.39,3.31,1,5,1.52,1,.31,1.89.71,2.84,1.08,3.59,1.38,6.72,3.6,9.92,5.66a32.945,32.945,0,0,1,3,2.48c1.15,1,2.32,1.92,3.46,2.9s2.05,1.75,3,2.69,2,2.11,3,3.19c1.25,1.37,2.52,2.71,3.67,4.16a92.427,92.427,0,0,1,6.39,8.43c1.34,2.12,2.89,4.2,3.53,6.76.29,1.16,1.17,2.16,1.63,3.29.94,2.36,1.85,4.72,2.64,7.13.63,1.9,1.1,3.85,1.54,5.8a50,50,0,0,1,1,5.42c.23,2.11.31,4.23.39,6.35v5.06c-.08,2.71-.25,5.42-.33,8.13-.07,2.27,0,4.55-.11,6.82-.14,2.75-.43,5.5-.59,8.26-.14,2.27-.2,4.55-.27,6.82A35.3,35.3,0,0,0,163.23,358.68Z" fill="#fff"/><path d="M105.64,45.27a1.9,1.9,0,0,1,2.09-.67c1.28.27,2.63.21,3.9.52a16.12,16.12,0,0,1,7.19,4c.12.11.12.33.22.63l-3.46-1.27,3.59,4.31A5.38,5.38,0,0,1,116,51.37c-2.12-1.84-4.17-3.83-7-4.58a2.92,2.92,0,0,0-1.1-.22,2.14,2.14,0,0,1-2.26-1.3Z" fill="#fff"/><path d="M120.28,9.47c-.21,2.21,2.38,1.74,2.87,3.33a2.46,2.46,0,0,1-2.37,0c-.51-.3-1.44.16-2.18.18a2.1,2.1,0,0,1-1.18-.29c-1.43-.95-1.7-2.68-2.51-4-.2-.33-.52-.81.18-1.33.41-.31.26-1.34.41-2a1.62,1.62,0,0,1,1.93-1c1,.25.52.92.45,1.47a7,7,0,0,0-.2,1.5c.06,1,0,2.18,1.64,2a3.39,3.39,0,0,1,.96.14Z" fill="#fff"/><path d="M230.64,128.34c.71,1.32,1.42,2.65,2.15,4,.81,1.48,1.73,2.91,2.42,4.44a21,21,0,0,1,.92,3.46,18.571,18.571,0,0,1,.4,2c.13.95.15,1.88-1,2.3a2.16,2.16,0,0,1-1.17-2.83,13.889,13.889,0,0,0,0-4.12c0-.2-.39-.36-.55-.57a16.26,16.26,0,0,1-2.4-3.54c-.43-1.21-1.54-2.42-.78-3.94.11-.23-.13-.65-.21-1Z" fill="#fff"/><path d="M103.36,16.65c.67.64,1.19,1.19,1.78,1.65a1.73,1.73,0,0,0,1,.27c.93,0,1.76.59,1.62,1.46a1.42,1.42,0,0,1-1.52,1.24c-2.46.06-3.25-.65-3-3.07A9.328,9.328,0,0,1,103.36,16.65Z" fill="#fff"/><path d="M112.72,12.52l1.51,2.05.57-1.25a1.72,1.72,0,0,1,.83,2.86.91.91,0,0,1-.68.18,6.18,6.18,0,0,1-1.42-.29c-.53-.19-1.18-.28-.85-1.23A7.85,7.85,0,0,0,112.72,12.52Z" fill="#fff"/><path d="M108.41,94.77,110,92.13l.29.16L109,95.08Z" fill="#fff"/></g></svg>