<svg xmlns="http://www.w3.org/2000/svg" width="15" height="17.14" viewBox="0 0 21 24"><path d="M20.341-17.909l-2.432-2.432A2.584,2.584,0,0,0,16.318-21H8.25A2.25,2.25,0,0,0,6-18.75v2.25H2.25A2.25,2.25,0,0,0,0-14.25v15A2.25,2.25,0,0,0,2.25,3h10.5A2.25,2.25,0,0,0,15,.75V-1.5h3.75A2.25,2.25,0,0,0,21-3.75V-16.318A2.584,2.584,0,0,0,20.341-17.909ZM16.5-19.477a.878.878,0,0,1,.348.2l2.432,2.432a.878.878,0,0,1,.2.348H16.5ZM13.5.75a.751.751,0,0,1-.75.75H2.25A.751.751,0,0,1,1.5.75v-15A.751.751,0,0,1,2.25-15H6V-3.75A2.25,2.25,0,0,0,8.25-1.5H13.5Zm6-4.5a.751.751,0,0,1-.75.75H8.25a.751.751,0,0,1-.75-.75v-15a.751.751,0,0,1,.75-.75H15v3.375A1.128,1.128,0,0,0,16.125-15H19.5Z" transform="translate(0 21)" fill="#fff"/></svg>