<svg xmlns="http://www.w3.org/2000/svg" width="18" height="24" viewBox="0 0 18 24"><path d="M9-16.5A4.505,4.505,0,0,0,4.5-12,4.505,4.505,0,0,0,9-7.5,4.505,4.505,0,0,0,13.5-12,4.505,4.505,0,0,0,9-16.5ZM9-9a3,3,0,0,1-3-3,3,3,0,0,1,3-3,3,3,0,0,1,3,3A3,3,0,0,1,9-9ZM9-21a9,9,0,0,0-9,9C0-8.371,1.264-7.358,8.075,2.516a1.126,1.126,0,0,0,1.85,0C16.736-7.358,18-8.371,18-12A9,9,0,0,0,9-21ZM9,1.215C2.471-8.227,1.5-8.977,1.5-12a7.451,7.451,0,0,1,2.2-5.3A7.451,7.451,0,0,1,9-19.5a7.451,7.451,0,0,1,5.3,2.2A7.451,7.451,0,0,1,16.5-12C16.5-8.977,15.53-8.228,9,1.215Z" transform="translate(0 21)" fill="#fff"/></svg>