<svg xmlns="http://www.w3.org/2000/svg" width="23.25" height="23.25" viewBox="0 0 23.25 23.25"><path d="M12-20.625A11.623,11.623,0,0,0,.375-9,11.623,11.623,0,0,0,12,2.625,11.623,11.623,0,0,0,23.625-9,11.623,11.623,0,0,0,12-20.625ZM22.125-9A10.125,10.125,0,0,1,12,1.125,10.125,10.125,0,0,1,1.875-9,10.125,10.125,0,0,1,12-19.125,10.125,10.125,0,0,1,22.125-9Zm-6.98,4.139a.566.566,0,0,0,.788-.122l.384-.53A.562.562,0,0,0,16.2-6.3l-3.3-2.4v-6.858a.564.564,0,0,0-.562-.562h-.656a.564.564,0,0,0-.562.563v7.481a.566.566,0,0,0,.23.455Z" transform="translate(-0.375 20.625)" fill="#fff"/></svg>